<?xml version="1.0" encoding="UTF-8"?>
<svg id="Layer_1" data-name="Layer 1" xmlns="http://www.w3.org/2000/svg" viewBox="0 0 1249.25 1249.25">
  <rect width="1249.25" height="1249.25" style="fill: none; stroke-width: 0px;"/>
  <g>
    <g>
      <path d="m765.13,959.04l122.24,122.24h-244.66l122.42-122.24m.02-69.27l-34.65,34.6-122.42,122.24-83.79,83.67h481.37l-83.65-83.65-122.24-122.24-34.62-34.62h0Z" style="stroke-width: 0px;"/>
      <path d="m270.54,167.97l810.74,810.74v102.57h-193.9L167.97,361.87v-193.9h102.57m20.3-49H118.97v263.2l14.35,14.35,719.41,719.41,14.35,14.35h263.2v-171.87l-14.35-14.35L305.19,133.32l-14.35-14.35h0Z" style="stroke-width: 0px;"/>
      <path d="m569.12,167.97l512.16,512.16v298.58L270.54,167.97h298.58m20.3-49H152.24l83.65,83.65,810.74,810.74,83.65,83.65v-437.18l-14.35-14.35L603.77,133.32l-14.35-14.35h0Z" style="stroke-width: 0px;"/>
      <path d="m850.14,167.97l231.14,231.14v281.02L569.12,167.97h281.02m20.3-49h-419.61l83.65,83.65,512.16,512.16,83.65,83.65v-419.61l-14.35-14.35-231.14-231.14-14.35-14.35h0Z" style="stroke-width: 0px;"/>
      <path d="m1081.28,167.97v231.14l-231.14-231.14h231.14m49-49h-398.43l83.65,83.65,231.14,231.14,83.65,83.65V118.97h0Z" style="stroke-width: 0px;"/>
      <path d="m615.84,809.75l149.29,149.29-122.42,122.24h-298.58l271.71-271.54m.01-69.29l-34.65,34.63-271.71,271.54-83.71,83.66h437.21l14.35-14.33,122.42-122.24,34.7-34.65-34.67-34.67-149.29-149.29-34.64-34.64h0Z" style="stroke-width: 0px;"/>
      <path d="m475.33,669.24l140.51,140.51-271.71,271.54h-176.16v-104.86l307.36-307.19m.01-69.29l-34.65,34.63-307.36,307.19-14.36,14.35v174.16h245.45l14.35-14.34,271.71-271.54,34.67-34.65-34.66-34.66-140.51-140.51-34.64-34.64h0Z" style="stroke-width: 0px;"/>
      <path d="m326.04,519.95l149.29,149.29-307.36,307.19v-298.58l158.07-157.9m.02-69.28l-34.65,34.61-158.07,157.9-14.37,14.36v437.14l83.64-83.59,307.36-307.19,34.67-34.65-34.66-34.66-149.29-149.29-34.63-34.63h0Z" style="stroke-width: 0px;"/>
      <path d="m167.97,361.87l158.07,158.07-158.07,157.9v-315.97m-49-118.3v552.47l83.63-83.54,158.07-157.9,34.69-34.65-34.67-34.67-158.07-158.07-83.65-83.65h0Z" style="stroke-width: 0px;"/>
    </g>
    <line x1="1081.28" y1="399.11" x2="850.14" y2="167.97" style="fill: none; stroke: #000; stroke-linecap: round; stroke-miterlimit: 10; stroke-width: 49px;"/>
    <line x1="1081.28" y1="680.13" x2="569.12" y2="167.97" style="fill: none; stroke: #000; stroke-linecap: round; stroke-miterlimit: 10; stroke-width: 49px;"/>
    <line x1="1081.28" y1="978.71" x2="270.54" y2="167.97" style="fill: none; stroke: #000; stroke-linecap: round; stroke-miterlimit: 10; stroke-width: 49px;"/>
    <line x1="887.38" y1="1081.28" x2="167.97" y2="361.87" style="fill: none; stroke: #000; stroke-linecap: round; stroke-miterlimit: 10; stroke-width: 49px;"/>
    <line x1="326.04" y1="519.94" x2="167.97" y2="677.84" style="fill: none; stroke: #000; stroke-linecap: round; stroke-miterlimit: 10; stroke-width: 49px;"/>
    <line x1="167.97" y1="976.43" x2="475.33" y2="669.24" style="fill: none; stroke: #000; stroke-linecap: round; stroke-miterlimit: 10; stroke-width: 49px;"/>
    <line x1="344.13" y1="1081.28" x2="615.84" y2="809.75" style="fill: none; stroke: #000; stroke-linecap: round; stroke-miterlimit: 10; stroke-width: 49px;"/>
    <line x1="642.72" y1="1081.28" x2="765.13" y2="959.04" style="fill: none; stroke: #000; stroke-linecap: round; stroke-miterlimit: 10; stroke-width: 49px;"/>
  </g>
</svg>